<svg xmlns="http://www.w3.org/2000/svg" xmlns:xlink="http://www.w3.org/1999/xlink" width="500" zoomAndPan="magnify" viewBox="0 0 375 374.999991" height="500" preserveAspectRatio="xMidYMid meet" version="1.2"><defs><clipPath id="3ecd9bb3c5"><path d="M 137.652344 26.074219 L 232.761719 26.074219 L 232.761719 106.058594 L 137.652344 106.058594 Z M 137.652344 26.074219 "/></clipPath></defs><g id="edfac61201"><g clip-rule="nonzero" clip-path="url(#3ecd9bb3c5)"><path style=" stroke:none;fill-rule:nonzero;fill:#000000;fill-opacity:1;" d="M 225.621094 60.195312 C 227.105469 52.226562 224.683594 44.640625 218.269531 39.359375 C 215.085938 36.734375 211.191406 34.539062 207.152344 33.410156 C 204.972656 32.800781 204.039062 36.105469 206.21875 36.714844 C 209.417969 37.609375 212.550781 39.296875 215.152344 41.285156 C 220.960938 45.714844 223.542969 52.191406 222.21875 59.285156 C 221.816406 61.4375 225.214844 62.363281 225.621094 60.195312 Z M 232.757812 56.917969 C 232.757812 67.511719 225.953125 78.167969 217.585938 83.71875 L 217.585938 118.410156 L 209.160156 118.410156 C 209.160156 116.351562 209.160156 114.289062 209.160156 112.230469 C 209.160156 110.410156 205.640625 110.40625 205.640625 112.230469 C 205.640625 114.289062 205.640625 116.351562 205.640625 118.410156 L 203.992188 118.410156 C 203.992188 116.351562 203.992188 114.289062 203.992188 112.230469 C 203.992188 110.410156 200.46875 110.40625 200.46875 112.230469 C 200.46875 114.289062 200.46875 116.351562 200.46875 118.410156 L 190.050781 118.410156 C 190.050781 116.351562 190.050781 114.289062 190.050781 112.230469 C 190.050781 110.410156 186.527344 110.40625 186.527344 112.230469 C 186.527344 114.289062 186.527344 116.351562 186.527344 118.410156 L 184.878906 118.410156 C 184.878906 116.351562 184.878906 114.289062 184.878906 112.230469 C 184.878906 110.410156 181.355469 110.40625 181.355469 112.230469 C 181.355469 114.289062 181.355469 116.351562 181.355469 118.410156 L 171.25 118.410156 C 171.25 116.351562 171.25 114.289062 171.25 112.230469 C 171.25 110.410156 167.722656 110.40625 167.722656 112.230469 C 167.722656 114.289062 167.722656 116.351562 167.722656 118.410156 L 166.078125 118.410156 C 166.078125 116.351562 166.078125 114.289062 166.078125 112.230469 C 166.078125 110.410156 162.554688 110.40625 162.554688 112.230469 C 162.554688 114.289062 162.554688 116.351562 162.554688 118.410156 L 154.132812 118.410156 L 154.132812 90.050781 C 145.875 85.675781 137.652344 75.195312 137.652344 65.402344 C 137.652344 51.144531 149.539062 39.585938 164.203125 39.585938 C 166.199219 39.585938 170.761719 41.773438 172.632812 42.179688 C 178.203125 33.308594 189.5625 26.078125 201.035156 26.078125 C 218.554688 26.078125 232.757812 39.886719 232.757812 56.917969 Z M 154.132812 121.300781 L 217.585938 121.300781 L 217.585938 129.222656 L 154.132812 129.222656 L 154.132812 121.300781 "/></g><g style="fill:#000000;fill-opacity:1;"><g transform="translate(91.517506, 301.193775)"><path style="stroke:none" d="M 11.359375 -7.75 L 25.59375 -7.75 C 26.738281 -7.75 27.570312 -7.613281 28.09375 -7.34375 C 28.625 -7.082031 28.972656 -6.671875 29.140625 -6.109375 C 29.316406 -5.554688 29.40625 -4.816406 29.40625 -3.890625 C 29.40625 -2.972656 29.316406 -2.234375 29.140625 -1.671875 C 28.972656 -1.117188 28.675781 -0.734375 28.25 -0.515625 C 27.59375 -0.171875 26.6875 0 25.53125 0 L 6.703125 0 C 4.253906 0 2.820312 -0.660156 2.40625 -1.984375 C 2.195312 -2.546875 2.09375 -3.4375 2.09375 -4.65625 L 2.09375 -33.75 C 2.09375 -34.550781 2.117188 -35.148438 2.171875 -35.546875 C 2.222656 -35.953125 2.390625 -36.414062 2.671875 -36.9375 C 3.160156 -37.882812 4.519531 -38.359375 6.75 -38.359375 C 9.1875 -38.359375 10.632812 -37.710938 11.09375 -36.421875 C 11.269531 -35.828125 11.359375 -34.921875 11.359375 -33.703125 Z M 11.359375 -7.75 "/></g></g><g style="fill:#000000;fill-opacity:1;"><g transform="translate(119.88057, 301.193775)"><path style="stroke:none" d="M 24.234375 -35.640625 L 38.359375 -6.4375 C 38.953125 -5.25 39.25 -4.359375 39.25 -3.765625 C 39.25 -2.515625 38.238281 -1.378906 36.21875 -0.359375 C 35.03125 0.222656 34.09375 0.515625 33.40625 0.515625 C 32.726562 0.515625 32.171875 0.359375 31.734375 0.046875 C 31.296875 -0.265625 30.976562 -0.59375 30.78125 -0.9375 C 30.59375 -1.289062 30.328125 -1.816406 29.984375 -2.515625 L 27.265625 -8.15625 L 12.765625 -8.15625 L 10.046875 -2.515625 C 9.703125 -1.816406 9.429688 -1.304688 9.234375 -0.984375 C 9.046875 -0.671875 8.734375 -0.347656 8.296875 -0.015625 C 7.859375 0.304688 7.296875 0.46875 6.609375 0.46875 C 5.929688 0.46875 5 0.171875 3.8125 -0.421875 C 1.789062 -1.398438 0.78125 -2.515625 0.78125 -3.765625 C 0.78125 -4.359375 1.078125 -5.25 1.671875 -6.4375 L 15.796875 -35.6875 C 16.179688 -36.488281 16.765625 -37.132812 17.546875 -37.625 C 18.335938 -38.113281 19.171875 -38.359375 20.046875 -38.359375 C 21.929688 -38.359375 23.328125 -37.453125 24.234375 -35.640625 Z M 19.984375 -23.078125 L 16.53125 -15.90625 L 23.5 -15.90625 Z M 19.984375 -23.078125 "/></g></g><g style="fill:#000000;fill-opacity:1;"><g transform="translate(157.558513, 301.193775)"><path style="stroke:none" d="M 27.78125 -8.953125 C 29.144531 -8.953125 30.128906 -8.785156 30.734375 -8.453125 C 31.347656 -8.117188 31.769531 -7.632812 32 -7 C 32.226562 -6.375 32.34375 -5.570312 32.34375 -4.59375 C 32.34375 -3.625 32.253906 -2.84375 32.078125 -2.25 C 31.898438 -1.65625 31.6875 -1.203125 31.4375 -0.890625 C 31.195312 -0.578125 30.832031 -0.347656 30.34375 -0.203125 C 29.789062 0.00390625 28.90625 0.109375 27.6875 0.109375 L 5.90625 0.109375 C 5.101562 0.109375 4.335938 -0.0976562 3.609375 -0.515625 C 2.078125 -1.390625 1.3125 -2.769531 1.3125 -4.65625 C 1.3125 -5.5625 1.519531 -6.296875 1.9375 -6.859375 L 18.15625 -29.296875 L 6.125 -29.296875 C 5.28125 -29.296875 4.65625 -29.320312 4.25 -29.375 C 3.851562 -29.425781 3.378906 -29.578125 2.828125 -29.828125 C 1.816406 -30.316406 1.3125 -31.625 1.3125 -33.75 C 1.3125 -35.976562 1.78125 -37.335938 2.71875 -37.828125 C 3.238281 -38.109375 3.695312 -38.273438 4.09375 -38.328125 C 4.5 -38.378906 5.125 -38.40625 5.96875 -38.40625 L 27 -38.40625 C 27.800781 -38.40625 28.566406 -38.195312 29.296875 -37.78125 C 30.035156 -37.363281 30.601562 -36.804688 31 -36.109375 C 31.40625 -35.410156 31.609375 -34.585938 31.609375 -33.640625 C 31.609375 -32.703125 31.398438 -31.953125 30.984375 -31.390625 L 14.75 -8.953125 Z M 27.78125 -8.953125 "/></g></g><g style="fill:#000000;fill-opacity:1;"><g transform="translate(188.852106, 301.193775)"><path style="stroke:none" d="M 11.359375 -9.265625 L 27.46875 -9.265625 C 28.269531 -9.265625 28.867188 -9.238281 29.265625 -9.1875 C 29.671875 -9.132812 30.140625 -8.96875 30.671875 -8.6875 C 31.609375 -8.195312 32.078125 -6.835938 32.078125 -4.609375 C 32.078125 -2.160156 31.429688 -0.726562 30.140625 -0.3125 C 29.546875 -0.101562 28.640625 0 27.421875 0 L 6.703125 0 C 4.253906 0 2.820312 -0.660156 2.40625 -1.984375 C 2.195312 -2.546875 2.09375 -3.4375 2.09375 -4.65625 L 2.09375 -33.75 C 2.09375 -35.53125 2.421875 -36.742188 3.078125 -37.390625 C 3.742188 -38.035156 5.003906 -38.359375 6.859375 -38.359375 L 27.46875 -38.359375 C 28.269531 -38.359375 28.867188 -38.332031 29.265625 -38.28125 C 29.671875 -38.226562 30.140625 -38.0625 30.671875 -37.78125 C 31.609375 -37.289062 32.078125 -35.929688 32.078125 -33.703125 C 32.078125 -31.253906 31.429688 -29.820312 30.140625 -29.40625 C 29.546875 -29.195312 28.640625 -29.09375 27.421875 -29.09375 L 11.359375 -29.09375 L 11.359375 -23.8125 L 21.71875 -23.8125 C 22.519531 -23.8125 23.117188 -23.785156 23.515625 -23.734375 C 23.921875 -23.679688 24.382812 -23.515625 24.90625 -23.234375 C 25.851562 -22.742188 26.328125 -21.382812 26.328125 -19.15625 C 26.328125 -16.707031 25.660156 -15.273438 24.328125 -14.859375 C 23.734375 -14.648438 22.828125 -14.546875 21.609375 -14.546875 L 11.359375 -14.546875 Z M 11.359375 -9.265625 "/></g></g><g style="fill:#000000;fill-opacity:1;"><g transform="translate(219.884039, 301.193775)"><path style="stroke:none" d="M 11.359375 -9.265625 L 27.46875 -9.265625 C 28.269531 -9.265625 28.867188 -9.238281 29.265625 -9.1875 C 29.671875 -9.132812 30.140625 -8.96875 30.671875 -8.6875 C 31.609375 -8.195312 32.078125 -6.835938 32.078125 -4.609375 C 32.078125 -2.160156 31.429688 -0.726562 30.140625 -0.3125 C 29.546875 -0.101562 28.640625 0 27.421875 0 L 6.703125 0 C 4.253906 0 2.820312 -0.660156 2.40625 -1.984375 C 2.195312 -2.546875 2.09375 -3.4375 2.09375 -4.65625 L 2.09375 -33.75 C 2.09375 -35.53125 2.421875 -36.742188 3.078125 -37.390625 C 3.742188 -38.035156 5.003906 -38.359375 6.859375 -38.359375 L 27.46875 -38.359375 C 28.269531 -38.359375 28.867188 -38.332031 29.265625 -38.28125 C 29.671875 -38.226562 30.140625 -38.0625 30.671875 -37.78125 C 31.609375 -37.289062 32.078125 -35.929688 32.078125 -33.703125 C 32.078125 -31.253906 31.429688 -29.820312 30.140625 -29.40625 C 29.546875 -29.195312 28.640625 -29.09375 27.421875 -29.09375 L 11.359375 -29.09375 L 11.359375 -23.8125 L 21.71875 -23.8125 C 22.519531 -23.8125 23.117188 -23.785156 23.515625 -23.734375 C 23.921875 -23.679688 24.382812 -23.515625 24.90625 -23.234375 C 25.851562 -22.742188 26.328125 -21.382812 26.328125 -19.15625 C 26.328125 -16.707031 25.660156 -15.273438 24.328125 -14.859375 C 23.734375 -14.648438 22.828125 -14.546875 21.609375 -14.546875 L 11.359375 -14.546875 Z M 11.359375 -9.265625 "/></g></g><g style="fill:#000000;fill-opacity:1;"><g transform="translate(250.915971, 301.193775)"><path style="stroke:none" d="M 27.78125 -8.953125 C 29.144531 -8.953125 30.128906 -8.785156 30.734375 -8.453125 C 31.347656 -8.117188 31.769531 -7.632812 32 -7 C 32.226562 -6.375 32.34375 -5.570312 32.34375 -4.59375 C 32.34375 -3.625 32.253906 -2.84375 32.078125 -2.25 C 31.898438 -1.65625 31.6875 -1.203125 31.4375 -0.890625 C 31.195312 -0.578125 30.832031 -0.347656 30.34375 -0.203125 C 29.789062 0.00390625 28.90625 0.109375 27.6875 0.109375 L 5.90625 0.109375 C 5.101562 0.109375 4.335938 -0.0976562 3.609375 -0.515625 C 2.078125 -1.390625 1.3125 -2.769531 1.3125 -4.65625 C 1.3125 -5.5625 1.519531 -6.296875 1.9375 -6.859375 L 18.15625 -29.296875 L 6.125 -29.296875 C 5.28125 -29.296875 4.65625 -29.320312 4.25 -29.375 C 3.851562 -29.425781 3.378906 -29.578125 2.828125 -29.828125 C 1.816406 -30.316406 1.3125 -31.625 1.3125 -33.75 C 1.3125 -35.976562 1.78125 -37.335938 2.71875 -37.828125 C 3.238281 -38.109375 3.695312 -38.273438 4.09375 -38.328125 C 4.5 -38.378906 5.125 -38.40625 5.96875 -38.40625 L 27 -38.40625 C 27.800781 -38.40625 28.566406 -38.195312 29.296875 -37.78125 C 30.035156 -37.363281 30.601562 -36.804688 31 -36.109375 C 31.40625 -35.410156 31.609375 -34.585938 31.609375 -33.640625 C 31.609375 -32.703125 31.398438 -31.953125 30.984375 -31.390625 L 14.75 -8.953125 Z M 27.78125 -8.953125 "/></g></g><path style=" stroke:none;fill-rule:evenodd;fill:#000000;fill-opacity:1;" d="M 108.238281 222.929688 C 114.035156 222.542969 121.375 220.613281 127.941406 220.226562 C 139.917969 219.066406 153.828125 216.75 167.738281 215.589844 C 179.714844 214.429688 195.167969 210.566406 208.6875 211.339844 C 234.1875 213.273438 261.617188 202.839844 266.640625 204 C 270.503906 210.183594 267.414062 222.160156 265.480469 227.953125 C 264.324219 232.976562 263.164062 233.363281 258.140625 234.90625 C 243.847656 239.542969 233.800781 238 219.121094 238.769531 C 209.847656 239.542969 202.121094 240.703125 193.234375 241.863281 C 182.03125 243.792969 152.667969 246.5 141.078125 246.5 C 132.964844 246.882812 122.535156 245.726562 116.738281 241.863281 C 108.625 236.839844 107.082031 232.976562 108.238281 222.929688 Z M 139.917969 126.34375 L 139.917969 129.4375 C 143.011719 131.753906 141.464844 131.367188 145.714844 131.753906 C 146.875 129.824219 148.417969 128.277344 146.101562 125.957031 C 143.78125 123.640625 141.464844 125.1875 139.917969 126.34375 Z M 143.78125 138.707031 L 143.78125 141.027344 C 147.261719 144.503906 152.28125 144.503906 151.511719 138.320312 C 148.03125 135.617188 146.875 136.777344 143.78125 138.707031 Z M 162.328125 115.914062 C 159.238281 113.597656 153.054688 113.980469 155.375 118.617188 C 156.144531 120.164062 163.101562 123.640625 162.328125 115.914062 Z M 174.691406 128.664062 C 176.234375 123.640625 170.054688 123.253906 168.507812 125.957031 C 166.964844 129.4375 171.601562 130.980469 174.691406 128.664062 Z M 190.917969 141.414062 C 194.78125 143.34375 197.097656 144.117188 199.417969 140.640625 C 198.257812 135.230469 190.53125 133.6875 190.917969 141.414062 Z M 216.03125 144.117188 C 219.894531 144.890625 220.664062 144.503906 220.664062 140.640625 L 216.03125 140.253906 Z M 225.6875 128.664062 L 225.300781 132.140625 C 227.621094 133.300781 228.390625 133.6875 231.097656 133.300781 L 231.871094 129.4375 C 229.550781 127.503906 228.777344 127.117188 225.6875 128.664062 Z M 200.574219 121.324219 C 208.6875 120.550781 208.300781 113.980469 199.804688 115.140625 C 197.871094 118.230469 198.644531 118.230469 200.574219 121.324219 Z M 177.78125 113.980469 C 179.714844 115.140625 182.03125 116.300781 184.347656 114.753906 C 185.894531 113.210938 184.347656 111.277344 183.578125 109.734375 C 179.328125 109.734375 177.007812 108.960938 177.78125 113.980469 Z M 112.488281 197.433594 C 117.511719 194.339844 123.308594 195.886719 129.875 194.726562 C 133.738281 193.957031 133.738281 192.796875 137.988281 192.796875 C 141.078125 193.183594 144.941406 193.957031 147.644531 193.957031 C 152.667969 193.957031 150.738281 192.410156 156.53125 194.339844 C 160.78125 195.886719 161.167969 194.726562 165.804688 195.113281 C 169.28125 195.113281 170.828125 197.046875 175.078125 195.886719 C 178.554688 194.726562 178.941406 192.796875 182.03125 192.023438 C 183.578125 191.636719 185.121094 192.023438 187.054688 191.25 C 188.984375 190.476562 188.984375 190.09375 190.53125 189.707031 C 194.394531 188.933594 197.097656 190.09375 200.1875 190.09375 C 208.300781 190.476562 207.917969 186.230469 217.960938 187 L 247.324219 186.230469 C 250.800781 185.84375 253.117188 184.683594 256.59375 184.683594 C 256.210938 189.707031 257.753906 185.84375 251.1875 190.09375 C 247.710938 192.023438 246.9375 191.25 243.074219 192.410156 C 220.277344 198.976562 212.9375 198.207031 187.441406 198.976562 C 168.894531 199.363281 148.03125 205.546875 130.261719 202.839844 C 124.464844 202.070312 119.058594 200.523438 113.261719 199.75 Z M 96.261719 180.433594 C 96.261719 175.023438 100.125 176.570312 103.21875 178.5 C 107.082031 180.820312 109.398438 180.046875 112.875 178.5 C 115.195312 177.34375 119.058594 179.660156 121.761719 180.820312 C 132.191406 184.296875 136.054688 180.046875 143.011719 180.820312 C 163.871094 182.363281 215.257812 176.957031 236.890625 174.636719 C 240.753906 174.25 245.390625 174.636719 248.867188 173.867188 C 263.550781 170.003906 256.59375 165.753906 262.390625 162.660156 C 265.867188 166.523438 267.027344 170.386719 272.433594 164.207031 C 272.820312 166.523438 272.050781 166.910156 270.890625 168.457031 C 264.324219 175.023438 260.84375 176.183594 249.253906 178.5 C 248.480469 178.5 235.734375 178.5 227.234375 179.660156 C 220.664062 180.820312 218.347656 176.570312 206.371094 181.207031 C 199.804688 183.523438 201.734375 182.363281 195.167969 181.980469 L 177.394531 183.910156 C 175.847656 184.683594 175.078125 185.84375 173.917969 187 C 171.214844 189.320312 169.667969 186.613281 164.257812 187 C 155.375 187.386719 158.078125 185.457031 154.601562 184.683594 C 150.351562 183.910156 149.964844 186.613281 143.78125 185.457031 C 140.304688 184.683594 136.054688 184.296875 132.191406 185.457031 C 128.714844 187 125.238281 187 121.375 186.613281 C 115.195312 186.613281 116.738281 186.613281 112.101562 188.933594 C 105.535156 185.457031 105.148438 189.320312 99.351562 190.09375 C 100.511719 188.160156 103.21875 187.386719 102.058594 183.910156 C 100.898438 180.433594 98.582031 181.59375 96.261719 180.433594 Z M 111.332031 166.136719 C 110.945312 158.027344 113.648438 150.296875 116.738281 144.503906 C 120.601562 137.164062 122.535156 134.457031 127.554688 129.050781 C 134.898438 120.550781 149.578125 113.210938 160.78125 109.734375 C 167.351562 107.800781 176.234375 106.253906 183.578125 105.484375 C 193.234375 104.324219 216.414062 110.503906 224.914062 115.914062 C 227.234375 117.460938 230.710938 119.390625 232.640625 121.324219 C 236.121094 123.640625 245.003906 135.230469 247.710938 139.480469 C 251.960938 144.890625 250.414062 144.503906 252.34375 147.980469 C 256.210938 154.160156 253.890625 157.253906 252.34375 161.117188 C 251.960938 162.660156 252.730469 161.890625 251.574219 163.433594 C 249.640625 166.910156 234.1875 167.296875 229.164062 167.683594 C 201.347656 170.386719 170.441406 174.636719 143.011719 174.25 C 136.828125 174.25 135.667969 173.09375 131.035156 172.320312 C 124.464844 171.546875 121.375 171.546875 115.195312 168.84375 C 112.875 167.683594 113.261719 167.296875 111.332031 166.136719 Z M 103.601562 170.003906 C 99.351562 169.230469 94.332031 168.84375 90.855469 172.320312 C 87.761719 175.410156 86.605469 179.660156 89.308594 183.523438 C 93.558594 189.707031 85.832031 190.09375 91.625 194.339844 C 95.875 198.207031 98.96875 197.046875 105.148438 196.660156 C 104.761719 198.976562 105.148438 200.523438 105.535156 202.839844 C 105.921875 206.703125 105.535156 205.160156 108.238281 207.089844 C 106.308594 210.953125 105.921875 207.863281 106.695312 213.660156 C 104.761719 214.429688 102.058594 215.976562 100.125 216.75 C 99.351562 221.386719 99.351562 229.886719 99.738281 234.523438 C 100.125 240.703125 103.21875 241.476562 107.464844 244.566406 C 125.625 258.476562 141.464844 253.839844 166.191406 251.90625 C 176.621094 251.132812 187.828125 250.363281 198.257812 248.816406 C 216.03125 246.113281 212.164062 246.5 230.324219 245.726562 C 238.824219 245.339844 254.664062 244.953125 262.003906 241.863281 C 276.683594 235.679688 269.730469 238.386719 275.914062 220.613281 C 277.457031 215.976562 276.683594 209.410156 276.300781 204 C 275.914062 197.046875 272.820312 197.820312 266.640625 196.273438 C 265.480469 190.476562 266.640625 191.636719 263.550781 187.386719 C 264.324219 180.433594 266.253906 181.980469 270.503906 178.886719 C 277.070312 174.25 284.414062 167.296875 279.003906 159.183594 C 275.914062 154.160156 270.503906 157.253906 267.800781 159.183594 L 262.003906 156.867188 C 260.84375 148.367188 258.527344 143.730469 254.664062 136.777344 C 251.960938 132.140625 246.164062 125.1875 242.6875 120.9375 C 229.164062 104.710938 193.621094 95.050781 173.917969 98.914062 C 163.488281 100.847656 153.054688 102.777344 144.941406 106.640625 C 139.917969 109.347656 126.011719 117.074219 122.535156 121.324219 L 114.421875 131.367188 C 111.332031 136.390625 110.171875 137.550781 107.851562 143.34375 C 106.695312 146.433594 100.511719 161.117188 100.511719 163.433594 C 100.511719 166.136719 102.832031 167.296875 103.601562 170.003906 Z M 103.601562 170.003906 "/><path style=" stroke:none;fill-rule:evenodd;fill:#ffbd59;fill-opacity:1;" d="M 108.238281 222.929688 C 107.082031 232.976562 108.625 236.839844 116.738281 241.863281 C 122.535156 245.726562 132.964844 246.882812 141.078125 246.5 C 152.667969 246.5 182.03125 243.792969 193.234375 241.863281 C 202.121094 240.703125 209.847656 239.542969 219.121094 238.769531 C 233.800781 238 243.847656 239.542969 258.140625 234.90625 C 263.164062 233.363281 264.324219 232.976562 265.480469 227.953125 C 267.414062 222.160156 270.503906 210.183594 266.640625 204 C 261.617188 202.839844 234.1875 213.273438 208.6875 211.339844 C 195.167969 210.566406 179.714844 214.429688 167.738281 215.589844 C 153.828125 216.75 139.917969 219.066406 127.941406 220.226562 C 121.375 220.613281 114.035156 222.542969 108.238281 222.929688 Z M 216.03125 140.253906 L 220.664062 140.640625 C 220.664062 144.503906 219.894531 144.890625 216.03125 144.117188 Z M 190.917969 141.414062 C 190.53125 133.6875 198.257812 135.230469 199.417969 140.640625 C 197.097656 144.117188 194.78125 143.34375 190.917969 141.414062 Z M 143.78125 138.707031 C 146.875 136.777344 148.03125 135.617188 151.511719 138.320312 C 152.28125 144.503906 147.261719 144.503906 143.78125 141.027344 Z M 225.6875 128.664062 C 228.777344 127.117188 229.550781 127.503906 231.871094 129.4375 L 231.097656 133.300781 C 228.390625 133.6875 227.621094 133.300781 225.300781 132.140625 Z M 139.917969 126.34375 C 141.464844 125.1875 143.78125 123.640625 146.101562 125.957031 C 148.417969 128.277344 146.875 129.824219 145.714844 131.753906 C 141.464844 131.367188 143.011719 131.753906 139.917969 129.4375 Z M 174.691406 128.664062 C 171.601562 130.980469 166.964844 129.4375 168.507812 125.957031 C 170.054688 123.253906 176.234375 123.640625 174.691406 128.664062 Z M 200.574219 121.324219 C 198.644531 118.230469 197.871094 118.230469 199.804688 115.140625 C 208.300781 113.980469 208.6875 120.550781 200.574219 121.324219 Z M 162.328125 115.914062 C 163.101562 123.640625 156.144531 120.164062 155.375 118.617188 C 153.054688 113.980469 159.238281 113.597656 162.328125 115.914062 Z M 177.78125 113.980469 C 177.007812 108.960938 179.328125 109.734375 183.578125 109.734375 C 184.347656 111.277344 185.894531 113.210938 184.347656 114.753906 C 182.03125 116.300781 179.714844 115.140625 177.78125 113.980469 Z M 111.332031 166.136719 C 113.261719 167.296875 112.875 167.683594 115.195312 168.84375 C 121.375 171.546875 124.464844 171.546875 131.035156 172.320312 C 135.667969 173.09375 136.828125 174.25 143.011719 174.25 C 170.441406 174.636719 201.347656 170.386719 229.164062 167.683594 C 234.1875 167.296875 249.640625 166.910156 251.574219 163.433594 C 252.730469 161.890625 251.960938 162.660156 252.34375 161.117188 C 253.890625 157.253906 256.210938 154.160156 252.34375 147.980469 C 250.414062 144.503906 251.960938 144.890625 247.710938 139.480469 C 245.003906 135.230469 236.121094 123.640625 232.640625 121.324219 C 230.710938 119.390625 227.234375 117.460938 224.914062 115.914062 C 216.414062 110.503906 193.234375 104.324219 183.578125 105.484375 C 176.234375 106.253906 167.351562 107.800781 160.78125 109.734375 C 149.578125 113.210938 134.898438 120.550781 127.554688 129.050781 C 122.535156 134.457031 120.601562 137.164062 116.738281 144.503906 C 113.648438 150.296875 110.945312 158.027344 111.332031 166.136719 Z M 111.332031 166.136719 "/><path style=" stroke:none;fill-rule:evenodd;fill:#ff3131;fill-opacity:1;" d="M 112.488281 197.433594 L 113.261719 199.75 C 119.058594 200.523438 124.464844 202.070312 130.261719 202.839844 C 148.03125 205.546875 168.894531 199.363281 187.441406 198.976562 C 212.9375 198.207031 220.277344 198.976562 243.074219 192.410156 C 246.9375 191.25 247.710938 192.023438 251.1875 190.09375 C 257.753906 185.84375 256.210938 189.707031 256.59375 184.683594 C 253.117188 184.683594 250.800781 185.84375 247.324219 186.230469 L 217.960938 187 C 207.917969 186.230469 208.300781 190.476562 200.1875 190.09375 C 197.097656 190.09375 194.394531 188.933594 190.53125 189.707031 C 188.984375 190.09375 188.984375 190.476562 187.054688 191.25 C 185.121094 192.023438 183.578125 191.636719 182.03125 192.023438 C 178.941406 192.796875 178.554688 194.726562 175.078125 195.886719 C 170.828125 197.046875 169.28125 195.113281 165.804688 195.113281 C 161.167969 194.726562 160.78125 195.886719 156.53125 194.339844 C 150.738281 192.410156 152.667969 193.957031 147.644531 193.957031 C 144.941406 193.957031 141.078125 193.183594 137.988281 192.796875 C 133.738281 192.796875 133.738281 193.957031 129.875 194.726562 C 123.308594 195.886719 117.511719 194.339844 112.488281 197.433594 Z M 112.488281 197.433594 "/><path style=" stroke:none;fill-rule:evenodd;fill:#00bf63;fill-opacity:1;" d="M 96.261719 180.433594 C 98.582031 181.59375 100.898438 180.433594 102.058594 183.910156 C 103.21875 187.386719 100.511719 188.160156 99.351562 190.09375 C 105.148438 189.320312 105.535156 185.457031 112.101562 188.933594 C 116.738281 186.613281 115.195312 186.613281 121.375 186.613281 C 125.238281 187 128.714844 187 132.191406 185.457031 C 136.054688 184.296875 140.304688 184.683594 143.78125 185.457031 C 149.964844 186.613281 150.351562 183.910156 154.601562 184.683594 C 158.078125 185.457031 155.375 187.386719 164.257812 187 C 169.667969 186.613281 171.214844 189.320312 173.917969 187 C 175.078125 185.84375 175.847656 184.683594 177.394531 183.910156 L 195.167969 181.980469 C 201.734375 182.363281 199.804688 183.523438 206.371094 181.207031 C 218.347656 176.570312 220.664062 180.820312 227.234375 179.660156 C 235.734375 178.5 248.480469 178.5 249.253906 178.5 C 260.84375 176.183594 264.324219 175.023438 270.890625 168.457031 C 272.050781 166.910156 272.820312 166.523438 272.433594 164.207031 C 267.027344 170.386719 265.867188 166.523438 262.390625 162.660156 C 256.59375 165.753906 263.550781 170.003906 248.867188 173.867188 C 245.390625 174.636719 240.753906 174.25 236.890625 174.636719 C 215.257812 176.957031 163.871094 182.363281 143.011719 180.820312 C 136.054688 180.046875 132.191406 184.296875 121.761719 180.820312 C 119.058594 179.660156 115.195312 177.34375 112.875 178.5 C 109.398438 180.046875 107.082031 180.820312 103.21875 178.5 C 100.125 176.570312 96.261719 175.023438 96.261719 180.433594 Z M 96.261719 180.433594 "/></g></svg>